<svg width="100" height="100" viewBox="0 0 100 100" fill="none" xmlns="http://www.w3.org/2000/svg">
<rect width="100" height="100" fill="#EFE9E3"/>
<path d="M33.8889 23.1667H37.4444V26.7222H33.8889V23.1667ZM33.8889 26.7222H37.4444V30.2778H33.8889V26.7222ZM37.4444 26.7222H41V30.2778H37.4444V26.7222ZM33.8889 30.2778H37.4444V33.8333H33.8889V30.2778ZM37.4444 30.2778H41V33.8333H37.4444V30.2778ZM41 30.2778H44.5556V33.8333H41V30.2778ZM41 33.8333H44.5556V37.3889H41V33.8333ZM37.4444 33.8333H41V37.3889H37.4444V33.8333ZM33.8889 33.8333H37.4444V37.3889H33.8889V33.8333ZM33.8889 37.3889H37.4444V40.9444H33.8889V37.3889ZM33.8889 40.9444H37.4444V44.5H33.8889V40.9444ZM33.8889 44.5H37.4444V48.0556H33.8889V44.5ZM33.8889 48.0556H37.4444V51.6111H33.8889V48.0556ZM33.8889 51.6111H37.4444V55.1667H33.8889V51.6111ZM37.4444 48.0556H41V51.6111H37.4444V48.0556ZM41 48.0556H44.5556V51.6111H41V48.0556ZM41 44.5H44.5556V48.0556H41V44.5ZM41 40.9444H44.5556V44.5H41V40.9444ZM41 37.3889H44.5556V40.9444H41V37.3889ZM37.4444 37.3889H41V40.9444H37.4444V37.3889ZM37.4444 40.9444H41V44.5H37.4444V40.9444ZM37.4444 44.5H41V48.0556H37.4444V44.5ZM37.4444 51.6111H41V55.1667H37.4444V51.6111ZM37.4444 55.1667H41V58.7222H37.4444V55.1667ZM41 55.1667H44.5556V58.7222H41V55.1667ZM41 51.6111H44.5556V55.1667H41V51.6111ZM41 58.7222H44.5556V62.2778H41V58.7222ZM41 62.2778H44.5556V65.8333H41V62.2778ZM41 65.8333H44.5556V69.3889H41V65.8333ZM37.4444 65.8333H41V69.3889H37.4444V65.8333ZM37.4444 62.2778H41V65.8333H37.4444V62.2778ZM37.4444 58.7222H41V62.2778H37.4444V58.7222ZM33.8889 55.1667H37.4444V58.7222H33.8889V55.1667ZM33.8889 58.7222H37.4444V62.2778H33.8889V58.7222ZM33.8889 62.2778H37.4444V65.8333H33.8889V62.2778ZM30.3333 62.2778H33.8889V65.8333H30.3333V62.2778ZM33.8889 65.8333H37.4444V69.3889H33.8889V65.8333ZM37.4444 69.3889H41V72.9444H37.4444V69.3889ZM33.8889 69.3889H37.4444V72.9444H33.8889V69.3889ZM30.3333 65.8333H33.8889V69.3889H30.3333V65.8333ZM30.3333 69.3889H33.8889V72.9444H30.3333V69.3889ZM33.8889 72.9444H37.4444V76.5H33.8889V72.9444ZM30.3333 72.9444H33.8889V76.5H30.3333V72.9444ZM26.7778 72.9444H30.3333V76.5H26.7778V72.9444ZM23.2222 72.9444H26.7778V76.5H23.2222V72.9444ZM19.6667 72.9444H23.2222V76.5H19.6667V72.9444ZM19.6667 69.3889H23.2222V72.9444H19.6667V69.3889ZM23.2222 65.8333H26.7778V69.3889H23.2222V65.8333ZM26.7778 65.8333H30.3333V69.3889H26.7778V65.8333ZM26.7778 69.3889H30.3333V72.9444H26.7778V69.3889ZM23.2222 69.3889H26.7778V72.9444H23.2222V69.3889ZM16.1111 69.3889H19.6667V72.9444H16.1111V69.3889ZM19.6667 65.8333H23.2222V69.3889H19.6667V65.8333ZM23.2222 62.2778H26.7778V65.8333H23.2222V62.2778ZM19.6667 62.2778H23.2222V65.8333H19.6667V62.2778ZM16.1111 62.2778H19.6667V65.8333H16.1111V62.2778ZM16.1111 65.8333H19.6667V69.3889H16.1111V65.8333ZM12.5556 65.8333H16.1111V69.3889H12.5556V65.8333ZM12.5556 62.2778H16.1111V65.8333H12.5556V62.2778ZM12.5556 58.7222H16.1111V62.2778H12.5556V58.7222ZM19.6667 58.7222H23.2222V62.2778H19.6667V58.7222ZM16.1111 58.7222H19.6667V62.2778H16.1111V58.7222ZM37.4444 23.1667H41V26.7222H37.4444V23.1667ZM41 23.1667H44.5556V26.7222H41V23.1667ZM41 26.7222H44.5556V30.2778H41V26.7222ZM58.7604 23.1667H62.316V26.7222H58.7604V23.1667ZM62.316 23.1667H65.8715V26.7222H62.316V23.1667ZM65.8715 23.1667H69.4271V26.7222H65.8715V23.1667ZM69.4271 23.1667H72.9826V26.7222H69.4271V23.1667ZM72.9826 23.1667H76.5382V26.7222H72.9826V23.1667ZM76.5382 23.1667H80.0938V26.7222H76.5382V23.1667ZM76.5382 26.7222H80.0938V30.2778H76.5382V26.7222ZM80.0938 26.7222H83.6493V30.2778H80.0938V26.7222ZM72.9826 26.7222H76.5382V30.2778H72.9826V26.7222ZM69.4271 26.7222H72.9826V30.2778H69.4271V26.7222ZM65.8715 26.7222H69.4271V30.2778H65.8715V26.7222ZM62.316 26.7222H65.8715V30.2778H62.316V26.7222ZM58.7604 26.7222H62.316V30.2778H58.7604V26.7222ZM55.2049 30.2778H58.7604V33.8333H55.2049V30.2778ZM55.2049 26.7222H58.7604V30.2778H55.2049V26.7222ZM51.6493 30.2778H55.2049V33.8333H51.6493V30.2778ZM58.7604 30.2778H62.316V33.8333H58.7604V30.2778ZM62.316 30.2778H65.8715V33.8333H62.316V30.2778ZM65.8715 30.2778H69.4271V33.8333H65.8715V30.2778ZM69.4271 30.2778H72.9826V33.8333H69.4271V30.2778ZM72.9826 30.2778H76.5382V33.8333H72.9826V30.2778ZM76.5382 30.2778H80.0938V33.8333H76.5382V30.2778ZM80.0938 30.2778H83.6493V33.8333H80.0938V30.2778ZM83.6493 30.2778H87.2049V33.8333H83.6493V30.2778ZM83.6493 33.8333H87.2049V37.3889H83.6493V33.8333ZM80.0938 33.8333H83.6493V37.3889H80.0938V33.8333ZM76.5382 33.8333H80.0938V37.3889H76.5382V33.8333ZM83.6493 58.7222H87.2049V62.2778H83.6493V58.7222ZM83.6493 62.2778H87.2049V65.8333H83.6493V62.2778ZM83.6493 65.8333H87.2049V69.3889H83.6493V65.8333ZM80.0938 65.8333H83.6493V69.3889H80.0938V65.8333ZM80.0938 62.2778H83.6493V65.8333H80.0938V62.2778ZM80.0938 58.7222H83.6493V62.2778H80.0938V58.7222ZM76.5382 58.7222H80.0938V62.2778H76.5382V58.7222ZM76.5382 62.2778H80.0938V65.8333H76.5382V62.2778ZM72.9826 62.2778H76.5382V65.8333H72.9826V62.2778ZM76.5382 65.8333H80.0938V69.3889H76.5382V65.8333ZM80.0938 69.3889H83.6493V72.9444H80.0938V69.3889ZM76.5382 69.3889H80.0938V72.9444H76.5382V69.3889ZM72.9826 65.8333H76.5382V69.3889H72.9826V65.8333ZM72.9826 69.3889H76.5382V72.9444H72.9826V69.3889ZM76.5382 72.9444H80.0938V76.5H76.5382V72.9444ZM72.9826 72.9444H76.5382V76.5H72.9826V72.9444ZM69.4271 72.9444H72.9826V76.5H69.4271V72.9444ZM65.8715 72.9444H69.4271V76.5H65.8715V72.9444ZM62.316 72.9444H65.8715V76.5H62.316V72.9444ZM58.7604 72.9444H62.316V76.5H58.7604V72.9444ZM58.7604 69.3889H62.316V72.9444H58.7604V69.3889ZM62.316 69.3889H65.8715V72.9444H62.316V69.3889ZM62.316 65.8333H65.8715V69.3889H62.316V65.8333ZM65.8715 65.8333H69.4271V69.3889H65.8715V65.8333ZM69.4271 65.8333H72.9826V69.3889H69.4271V65.8333ZM69.4271 69.3889H72.9826V72.9444H69.4271V69.3889ZM65.8715 69.3889H69.4271V72.9444H65.8715V69.3889ZM55.2049 69.3889H58.7604V72.9444H55.2049V69.3889ZM58.7604 65.8333H62.316V69.3889H58.7604V65.8333ZM62.316 62.2778H65.8715V65.8333H62.316V62.2778ZM58.7604 62.2778H62.316V65.8333H58.7604V62.2778ZM55.2049 62.2778H58.7604V65.8333H55.2049V62.2778ZM55.2049 65.8333H58.7604V69.3889H55.2049V65.8333ZM51.6493 65.8333H55.2049V69.3889H51.6493V65.8333ZM51.6493 62.2778H55.2049V65.8333H51.6493V62.2778ZM51.6493 58.7222H55.2049V62.2778H51.6493V58.7222ZM51.6493 55.1667H55.2049V58.7222H51.6493V55.1667ZM51.6493 51.6111H55.2049V55.1667H51.6493V51.6111ZM51.6493 48.0556H55.2049V51.6111H51.6493V48.0556ZM51.6493 44.5H55.2049V48.0556H51.6493V44.5ZM51.6493 40.9444H55.2049V44.5H51.6493V40.9444ZM51.6493 37.3889H55.2049V40.9444H51.6493V37.3889ZM51.6493 33.8333H55.2049V37.3889H51.6493V33.8333ZM55.2049 33.8333H58.7604V37.3889H55.2049V33.8333ZM58.7604 33.8333H62.316V37.3889H58.7604V33.8333ZM62.316 33.8333H65.8715V37.3889H62.316V33.8333ZM58.7604 37.3889H62.316V40.9444H58.7604V37.3889ZM58.7604 40.9444H62.316V44.5H58.7604V40.9444ZM58.7604 44.5H62.316V48.0556H58.7604V44.5ZM58.7604 48.0556H62.316V51.6111H58.7604V48.0556ZM58.7604 51.6111H62.316V55.1667H58.7604V51.6111ZM58.7604 55.1667H62.316V58.7222H58.7604V55.1667ZM58.7604 58.7222H62.316V62.2778H58.7604V58.7222ZM55.2049 58.7222H58.7604V62.2778H55.2049V58.7222ZM55.2049 55.1667H58.7604V58.7222H55.2049V55.1667ZM55.2049 51.6111H58.7604V55.1667H55.2049V51.6111ZM55.2049 48.0556H58.7604V51.6111H55.2049V48.0556ZM55.2049 44.5H58.7604V48.0556H55.2049V44.5ZM55.2049 40.9444H58.7604V44.5H55.2049V40.9444ZM55.2049 37.3889H58.7604V40.9444H55.2049V37.3889ZM69.4271 44.5H72.9826V48.0556H69.4271V44.5ZM72.9826 44.5H76.5382V48.0556H72.9826V44.5ZM76.5382 44.5H80.0938V48.0556H76.5382V44.5ZM80.0938 44.5H83.6493V48.0556H80.0938V44.5ZM83.6493 44.5H87.2049V48.0556H83.6493V44.5ZM83.6493 48.0556H87.2049V51.6111H83.6493V48.0556ZM83.6493 51.6111H87.2049V55.1667H83.6493V51.6111ZM83.6493 55.1667H87.2049V58.7222H83.6493V55.1667ZM80.0938 55.1667H83.6493V58.7222H80.0938V55.1667ZM76.5382 55.1667H80.0938V58.7222H76.5382V55.1667ZM76.5382 51.6111H80.0938V55.1667H76.5382V51.6111ZM76.5382 48.0556H80.0938V51.6111H76.5382V48.0556ZM80.0938 48.0556H83.6493V51.6111H80.0938V48.0556ZM80.0938 51.6111H83.6493V55.1667H80.0938V51.6111ZM72.9826 51.6111H76.5382V55.1667H72.9826V51.6111ZM69.4271 51.6111H72.9826V55.1667H69.4271V51.6111ZM69.4271 48.0556H72.9826V51.6111H69.4271V48.0556ZM72.9826 48.0556H76.5382V51.6111H72.9826V48.0556Z" fill="#212121"/>
</svg>
